<svg viewBox="0 0 143 36" height="36" class="sc-AxmLO sc-fzozJi dteCCc sc-fzoXWK hnKkAN" style="fill: rgb(0, 0, 0);"><path d="M120.761 10.598h-9.778c-4.868 0-6.064 3.074-6.064 6.232v18.498h5.775V17.253h-1.98v-2.826h2.723v2.065h9.324v4.55h5.777v-4.549c0-3.03-2.394-5.895-5.777-5.895Zm-86.274-.633c-7.013 0-12.748 5.855-12.748 13.018s5.738 13.015 12.748 13.015c7.01 0 12.753-5.848 12.753-13.015 0-7.167-5.735-13.018-12.753-13.018Zm0 20.134c-3.796 0-6.972-3.287-6.972-7.12 0-3.876 3.176-7.12 6.972-7.12 3.796 0 6.973 3.244 6.973 7.12.004 3.837-3.173 7.124-6.973 7.124v-.004ZM0 13.756v17.948c0 .47.09.936.266 1.37.175.435.433.83.759 1.162a3.5 3.5 0 0 0 1.137.777c.425.18.88.273 1.341.273H19.84v-5.902H6.52v2.022H3.755v-2.78h2.021V16.831h-1.98V14.01h2.722v2.064h13.327v-5.898H3.503c-.46 0-.916.093-1.341.273-.425.18-.811.443-1.137.776a3.585 3.585 0 0 0-.759 1.161c-.176.434-.266.9-.266 1.37Zm89.282-3.791c-7.013 0-12.748 5.855-12.748 13.018s5.735 13.015 12.748 13.015c7.014 0 12.749-5.856 12.749-13.018 0-7.162-5.735-13.015-12.749-13.015Zm0 20.134c-3.755 0-6.972-3.329-6.972-7.12 0-3.835 3.218-7.12 6.972-7.12 3.755 0 6.973 3.286 6.973 7.12 0 3.795-3.219 7.124-6.973 7.124v-.004Zm45.507-.669V16.581h6.933v-5.898h-6.933v-9.65h-5.775V30.65c0 2.022.99 4.676 4.208 4.676H143v-5.898h-8.211ZM69.228 10.597H55.613V.95H49.84v34.294h5.774v-17.99h-1.978v-2.826h2.723v2.065h11.555v18.836h5.776V15.147c-.002-2.274-2.23-4.55-4.461-4.55Z"></path></svg>